<svg xmlns="http://www.w3.org/2000/svg" class="lixoftchart BLQ" width="896" height="832" style="font-family: &quot;Source Sans Pro&quot;, -apple-system, &quot;system-ui&quot;, &quot;Segoe UI&quot;, Roboto, &quot;Helvetica Neue&quot;, Arial, sans-serif, &quot;Apple Color Emoji&quot;, &quot;Segoe UI Emoji&quot;, &quot;Segoe UI Symbol&quot;; font-weight: 400;"><style>:root {
--lixoftgui-section-container-height:100%;
--primary--1:rgba(21, 140, 186, 0.1);
--primary--2:rgba(21, 140, 186, 0.2);
--primary--3:rgba(21, 140, 186, 0.3);
--primary--4:rgba(21, 140, 186, 0.4);
--primary--5:rgba(21, 140, 186, 0.5);
--primary--6:rgba(21, 140, 186, 0.6);
--primary--7:rgba(21, 140, 186, 0.7);
--primary--8:rgba(21, 140, 186, 0.8);
--primary--9:rgba(21, 140, 186, 0.9);
--secondary--1:rgba(240, 240, 240, 0.1);
--secondary--2:rgba(240, 240, 240, 0.2);
--secondary--3:rgba(240, 240, 240, 0.3);
--secondary--4:rgba(240, 240, 240, 0.4);
--secondary--5:rgba(240, 240, 240, 0.5);
--secondary--6:rgba(240, 240, 240, 0.6);
--secondary--7:rgba(240, 240, 240, 0.7);
--secondary--8:rgba(240, 240, 240, 0.8);
--secondary--9:rgba(240, 240, 240, 0.9);
--success--1:rgba(40, 182, 44, 0.1);
--success--2:rgba(40, 182, 44, 0.2);
--success--3:rgba(40, 182, 44, 0.3);
--success--4:rgba(40, 182, 44, 0.4);
--success--5:rgba(40, 182, 44, 0.5);
--success--6:rgba(40, 182, 44, 0.6);
--success--7:rgba(40, 182, 44, 0.7);
--success--8:rgba(40, 182, 44, 0.8);
--success--9:rgba(40, 182, 44, 0.9);
--info--1:rgba(117, 202, 235, 0.1);
--info--2:rgba(117, 202, 235, 0.2);
--info--3:rgba(117, 202, 235, 0.3);
--info--4:rgba(117, 202, 235, 0.4);
--info--5:rgba(117, 202, 235, 0.5);
--info--6:rgba(117, 202, 235, 0.6);
--info--7:rgba(117, 202, 235, 0.7);
--info--8:rgba(117, 202, 235, 0.8);
--info--9:rgba(117, 202, 235, 0.9);
--warning--1:rgba(255, 133, 27, 0.1);
--warning--2:rgba(255, 133, 27, 0.2);
--warning--3:rgba(255, 133, 27, 0.3);
--warning--4:rgba(255, 133, 27, 0.4);
--warning--5:rgba(255, 133, 27, 0.5);
--warning--6:rgba(255, 133, 27, 0.6);
--warning--7:rgba(255, 133, 27, 0.7);
--warning--8:rgba(255, 133, 27, 0.8);
--warning--9:rgba(255, 133, 27, 0.9);
--danger--1:rgba(255, 65, 54, 0.1);
--danger--2:rgba(255, 65, 54, 0.2);
--danger--3:rgba(255, 65, 54, 0.3);
--danger--4:rgba(255, 65, 54, 0.4);
--danger--5:rgba(255, 65, 54, 0.5);
--danger--6:rgba(255, 65, 54, 0.6);
--danger--7:rgba(255, 65, 54, 0.7);
--danger--8:rgba(255, 65, 54, 0.8);
--danger--9:rgba(255, 65, 54, 0.9);
--light--1:rgba(246, 246, 246, 0.1);
--light--2:rgba(246, 246, 246, 0.2);
--light--3:rgba(246, 246, 246, 0.3);
--light--4:rgba(246, 246, 246, 0.4);
--light--5:rgba(246, 246, 246, 0.5);
--light--6:rgba(246, 246, 246, 0.6);
--light--7:rgba(246, 246, 246, 0.7);
--light--8:rgba(246, 246, 246, 0.8);
--light--9:rgba(246, 246, 246, 0.9);
--dark--1:rgba(85, 85, 85, 0.1);
--dark--2:rgba(85, 85, 85, 0.2);
--dark--3:rgba(85, 85, 85, 0.3);
--dark--4:rgba(85, 85, 85, 0.4);
--dark--5:rgba(85, 85, 85, 0.5);
--dark--6:rgba(85, 85, 85, 0.6);
--dark--7:rgba(85, 85, 85, 0.7);
--dark--8:rgba(85, 85, 85, 0.8);
--dark--9:rgba(85, 85, 85, 0.9);
--theme-scheme--1:#158CBA;
--theme-scheme--2:#3e82bf;
--theme-scheme--3:#6475bc;
--theme-scheme--4:#8566b0;
--theme-scheme--5:#a05599;
--theme-scheme--6:#b0447c;
--theme-scheme-lg--1:#158cba;
--theme-scheme-lg--2:#1dade5;
--theme-scheme-lg--3:#4abeeb;
--theme-scheme-lg--4:#78cef0;
--theme-scheme-lg--5:#b0447c;
--theme-scheme-lg--6:#c36495;
--theme-scheme-lg--7:#d189ae;
--theme-scheme-lg--8:#e0adc7;
--theme-scheme-lg--9:#618f35;
--theme-scheme-lg--10:#7ab443;
--theme-scheme-lg--11:#94c664;
--theme-scheme-lg--12:#aed38a;
--glyph-contrasted-color:black;
--glyph-contrasted-lighter-color:#807f7f;
--blue:#158CBA;
--indigo:#6610f2;
--purple:#6f42c1;
--pink:#e83e8c;
--red:#FF4136;
--orange:#fd7e14;
--yellow:#FF851B;
--green:#28B62C;
--teal:#20c997;
--cyan:#75CAEB;
--white:#fff;
--gray:#999;
--gray-dark:#333;
--primary:#158CBA;
--secondary:#f0f0f0;
--success:#28B62C;
--info:#75CAEB;
--warning:#FF851B;
--danger:#FF4136;
--light:#f6f6f6;
--dark:#555;
--breakpoint-xs:0;
--breakpoint-sm:576px;
--breakpoint-md:768px;
--breakpoint-lg:992px;
--breakpoint-xl:1200px;
--font-family-sans-serif:"Source Sans Pro", -apple-system, BlinkMacSystemFont, "Segoe UI", Roboto, "Helvetica Neue", Arial, sans-serif, "Apple Color Emoji", "Segoe UI Emoji", "Segoe UI Symbol";
--font-family-monospace:SFMono-Regular, Menlo, Monaco, Consolas, "Liberation Mono", "Courier New", monospace;
--mm-color-background:;
--fastui-numericwheel-base-color:;
--fastui-numericwheel-handle-color:;
--fastui-numericwheel-stripe-color:;
--fastui-numericwheel-overlayside-color:;
--fastui-numericwheel-overlaycenter-color:;
--graphical-mode-icon-display:none;

}
html, body { height: 100%; }
body { margin: 0px; overflow: hidden; }
.lixoftchart-container { display: flex; flex-direction: column; height: 100%; }
.lixoftchart { width: 100%; height: 100%; flex: 1 1 0%; }
.lixoftchart-header, .lixoftchart-settings-card-header { height: 34px; }
.lixoftchart-settings-card-header { padding: 0.4rem 1.25rem; border-style: solid; border-width: 0px 1px 4px; }
.main { flex: 1 1 0%; height: 100%; width: 100%; }
.footer { margin: 0px; }
.checkinit-footer { max-height: 230px; overflow-y: auto; }
.page, .subpage { height: 100%; display: none; }
.page.active, .subpage.active { display: block; }
.axes, .grid { pointer-events: none; }
.axis path, .axis line { fill: none; shape-rendering: crispedges; }
.tick { font-family: sans-serif; }
.line { fill: none; }
.tick line { stroke-width: 1px; }
.grid line { opacity: 0.2; }
.title { pointer-events: none; font-weight: 400; }
.axis-label { text-anchor: middle; }
.axis-label-unit { font-family: monospace; font-size: smaller; }
.label-subscript { baseline-shift: sub; font-size: 0.8em; }
.zoomable-content, .brushable-content { cursor: crosshair; }
rect.zoom { fill: rgb(221, 221, 221); stroke: steelblue; fill-opacity: 0.5; }
g.brush &gt; rect.selection { stroke-width: 0; }
.handle--custom { fill: rgb(122, 122, 122); fill-opacity: 1; stroke: rgb(122, 122, 122); stroke-width: 2px; display: inline !important; }
.log-filtered { display: none; }
.dot { stroke: none; }
.observations-container .observation-dot.greyed { fill: lightgrey !important; }
.spline { fill: none; }
.regressionLine { fill: none; }
.yeqxLine { fill: none; }
.convergence-line { fill: none; }
.percentile-line, .distribution-line { stroke-width: 1px; }
.bar { shape-rendering: crispedges; }
.vertical-line, .horizontal-line { shape-rendering: crispedges; }
.k1, .bound { shape-rendering: crispedges; }
.outlier.dot { fill: none; }
.boxplot { font: 10px sans-serif; }
.box-element line, .box-element rect { stroke-opacity: 1; shape-rendering: crispedges; }
.boxplot .outlier line { fill: none; }
.boxplot .box-underlay { fill: white; fill-opacity: 1; }
.boxplot .label { font-size: 12px; }
.arrow-marker { stroke-width: 0; font-size: 20px; fill: red; dominant-baseline: central; }
.layout-link { padding: 1px 5px !important; }
.sublayout-controls { min-height: 20px; transition: opacity 0.5s ease-in-out 0s; background-color: transparent; opacity: 0.2; cursor: pointer; }
.pagination { transition: opacity 0.5s ease-in-out 0s; }
.sublayout-controls .pagination { opacity: 0; }
.sublayout-controls:hover { transition: none 0s ease 0s; opacity: 0.9; }
.sublayout-controls:hover .pagination { transition: none 0s ease 0s; opacity: 1; }
.plot-grid, .subplot-grid { margin: 0px; min-width: 0px; }
.grid-cell { outline: rgb(221, 221, 221) solid 1px; cursor: text; position: absolute; }
.plot-cell { background-color: rgba(119, 33, 111, 0.3); }
.matrix-diagonal-cell { background-color: rgb(174, 167, 159) !important; }
.plot-cell.selected { background-color: rgb(119, 33, 111); }
.plot-cell:hover, .plot-cell.hovered { background-color: rgb(243, 152, 20); }
.plot-cell.ui-selecting { background-color: rgb(233, 84, 32); }
.cells-selector { cursor: pointer; width: 0px; height: 0px; position: absolute; border: 10px solid rgba(119, 33, 111, 0.3); }
.cells-selector.selected { border-color: rgb(119, 33, 111); }
.cells-selector.rows, .cells-selector.all { border-top-color: transparent !important; border-bottom-color: transparent !important; border-right-color: transparent !important; }
.cells-selector.cols { border-top-color: transparent !important; border-left-color: transparent !important; border-right-color: transparent !important; }
.cells-selector.all { transform: rotate(-45deg); }
.cells-selector:hover { border-color: rgb(243, 152, 20); }
.layout-grid, .sublayout-grid { padding: 0px; margin: 0px; min-width: 0px; background-color: transparent; border: none; box-shadow: none !important; }
.layout-grid-content { border-collapse: collapse; border: 1px solid rgb(221, 221, 221); }
.layout-cell { background-color: rgba(119, 33, 111, 0.3); border: 1px solid rgb(221, 221, 221); min-width: 20px; width: 20px; height: 20px; cursor: pointer; }
.layout-cell.selected { background-color: rgb(119, 33, 111); }
.layout-cell.selecting { background-color: rgb(233, 84, 32); }
.layout-container { align-items: center; }
.layout-controls { display: flex; justify-content: space-between; align-items: center; }
.layout-controls &gt; .layout-controls-wrapper { display: flex; align-items: baseline; }
.layout-controls .btn { border: 0px; border-radius: 0px; white-space: nowrap; padding: 4px 8px !important; }
.layout-controls .btn.toggle-controls-btn { margin-left: 1rem !important; }
.pagination input { color: inherit; background: transparent; border: 0px; outline: none; }
.contrasted-chart-header-btn:not(:hover) { background: rgba(255, 255, 255, 0.2) !important; }
.message-banner { position: fixed; left: 0px; width: 100%; margin-bottom: 0px; z-index: 10; }
.message-banner.top { top: 0px; }
.message-banner.bottom { bottom: 0px; }
.legend { box-shadow: rgba(0, 0, 0, 0.2) 0px 8px 17px 0px, rgba(0, 0, 0, 0.19) 0px 6px 20px 0px; z-index: 10; }
.legend:not(.no-move) { cursor: move !important; }
.legend-glyph:not(.aa) { shape-rendering: crispedges; }
.legend-group-label { font-weight: bold; }
line.glyph-contrasted { stroke:  black  !important; }
circle.glyph-contrasted { fill:  black  !important; }
line.glyph-contrasted-lighter { stroke:  #807f7f  !important; }
circle.glyph-contrasted-lighter { fill:  #807f7f  !important; }
.ui-selectable-helper { z-index: 1100; }
.ui-selectable-helper.no-top { border-top: 0px; }
.ui-selectable-helper.no-right { border-right: 0px; }
.ui-selectable-helper.no-bottom { border-bottom: 0px; }
.ui-selectable-helper.no-left { border-left: 0px; }
.print-preview &gt; .modal-dialog { position: absolute; height: auto; inset: 0px; }
.page-preview { border: 1px dashed rgb(51, 51, 51); margin: 0px auto; }
.page-preview.portrait { height: 60vh; width: 42.42vh; }
.page-preview.landscape { width: 60vw; height: 42.42vw; }
.tooltip-key::after { content: ": "; }
.brushed-out, .bar.brushed-out { fill: rgb(204, 204, 204) !important; }
.infowrapper { pointer-events: none; }
.information { overflow: hidden overlay; padding: 0.5em; font-family: monospace; box-shadow: rgba(0, 0, 0, 0.2) 0px 8px 17px 0px, rgba(0, 0, 0, 0.19) 0px 6px 20px 0px; display: inline-block; float: right; cursor: move; pointer-events: all; }
.information span { float: left; clear: both; }
.axis path, .axis line, .grid line{
stroke: #636363;
}

.tick text{
fill: #636363;
}

.axis path, .axis line{
stroke-width: 1px;
}

.bar-label{
fill: #000000;
}

.bar-label{
font-size: 10px;
}

.bin-value, g.binsValues{
stroke: red;
}

.bin-value, g.binsValues{
}

.bin-value, g.binsValues{
stroke-width: 1px;
}

.bound{
stroke: red;
}

.bound{
stroke-width: 2px;
}

.bound.bounded{
stroke: limegreen;
}

.baseline, .histo-baseline, .histo-median{
stroke: #000000;
}

.baseline, .histo-baseline, .histo-median{
}

.baseline, .histo-baseline, .histo-median{
stroke-width: 1px;
}

.box-element rect, g.box-element{
fill: #8fbbd9;
}

.boxplot .outlier line{
stroke: #ff0000;
}

.boxplot .outlier line{
stroke-width: 1px;
}

.quartile, .histo-quartile{
stroke: #000000;
}

.quartile, .histo-quartile{
stroke-dasharray: 3, 2;
}

.quartile, .histo-quartile{
stroke-width: 1px;
}

.box-element line{
stroke: #000000;
}

.box-element line{
stroke-width: 1px;
}

.boxplot-value{
fill: #000000;
}

.boxplot-value{
stroke: #000000;
}

.censEvents{
fill: #d44242;
}

.censEvents{
stroke: #d44242;
}

.censObservations{
fill: #d44242;
}
.censObsIntervals{stroke:rgb(212,66,66);stroke-opacity:0.5;}

.censObsIntervals{
}

.censObsIntervals{
stroke-width: 5px;
}

.censObservations.highlighted:not(.check-init-observation){
fill: brown !important;
}

.convergence-line{
stroke: #4682B4;
}

.cvIndicator-line{
stroke: #990099;
}

g.dosingTimes, g.dosingTimes-container{
stroke: #000000;
}

g.dosingTimes, g.dosingTimes-container{
stroke-dasharray: 8, 8;
}

g.dosingTimes, g.dosingTimes-container{
stroke-width: 2px;
}

line.empirical, path.empirical{
stroke: #4682B4;
}

.dot.empirical{
fill: #4682B4;
}

line.empirical, path.empirical{
}

line.empirical, path.empirical{
stroke-width: 2px;
}

.fisher_linearization&gt;.bar{
fill: #4682B4;
}

.fisher_stochasticApproximation&gt;.bar{
fill: #98abc5;
}

.focus &gt; line, .focus &gt; circle{
stroke: blue;
}

.lixoftchart{
background-color: #ffffff;
}

.sublayout-controls:hover{
background-color: #ffffff;
}

.bar:hover, .band-overlay:hover, circle.highlighted:not(.censObservations){
fill: orange !important;
}

line.highlighted, path.highlighted{
stroke: orange !important;
}

g.bar, g.histogram{
fill: #4682B4;
}

g.bar, g.histogram, g.histogram&gt;.bar{
stroke: #ffffff;
}

g.bar, g.histogram{
stroke-width: 1px;
}

.information{
background-color: #FFFFCC;
}

.information{
fill: #FFFFCC;
}

.information{
font-size: 12px;
}

.information{
color: #000000;
}

.k1{
stroke: red;
}

.k1{
stroke-width: 1px;
}

.axis-label.global{
fill: #000000;
}

.axis-label.global{
font-size: 14px;
}

.legend-frame{
fill: #ffffff;
}

.legend-frame{
stroke: #000000;
}

.legend-frame{
stroke-width: 0px;
}

.legend text{
fill: #000000;
}

.legend{
font-size: 12px;
}

.ll_importanceSampling&gt;.bar{
fill: #98abc5;
}

.ll_linearization&gt;.bar{
fill: #4682B4;
}

g.medians, path.median, line.median{
stroke: #000000;
}

g.medians, path.median, line.median{
stroke-dasharray: 5,3;
}

g.medians, path.median, line.median{
stroke-width: 1px;
}

.observation{
fill: #4682B4;
}

.observation{
stroke: #4682B4;
}

.observation-line{
stroke-width: 1.5px;
}

.obsStatisticsValues{
font-size: 10px;
}

.observation-statistics-line, g.obsStatistics{
stroke: #000000;
}

.observation-statistics-line, g.obsStatistics{
}

.observation-statistics-line, g.obsStatistics{
stroke-width: 1.5px;
}

.outlier.area{
fill: #ff0000;
}

.outlier.dot{
stroke: #ff0000;
}

.outlier.dot{
stroke-width: 1px;
}
.prediction-interval.median{fill:rgb(255,0,0);fill-opacity:0.2;}
.prediction-interval.low, .prediction-interval.up{fill:rgb(0,128,255);fill-opacity:0.3;}
.plot-background{fill:rgb(250,250,255);fill-opacity:0.6;}
.bar{stroke:rgb(250,250,255);stroke-opacity:0.6;}

.regressionLine{
stroke: #bd2671;
}

.regressionLine{
}

.regressionLine{
stroke-width: 1.5px;
}

.spline{
stroke: #eba213;
}

.spline{
}

.spline{
stroke-width: 1.5px;
}

.axis-label.sublabel, .matrix-diagonal-label{
fill: #000000;
}

.axis-label.sublabel, .matrix-diagonal-label{
font-size: 12px;
}

line.theoretical, path.theoretical{
stroke: #000000;
}

.dot.theoretical{
fill: #000000;
}

line.theoretical, path.theoretical{
stroke-dasharray: 5,3;
}

line.theoretical, path.theoretical{
stroke-width: 1.5px;
}

.tick{
font-size: 10px;
}

.title{
fill: #000000;
}

.title{
font-size: 14px;
}

.axis-label-unit{
fill: #999;
}

.userGuide-dot{
fill: red;
}

.userGuide-line{
stroke: red;
}

.userGuide-dot{
r: 3;
}

.userGuide-line{
}

.userGuide-line{
stroke-width: 1px;
}

.brushed-out, .brushed-out.bar{
fill: #ccc !important;
}
.not-areaOutliers{display:none;}
.not-blqFrequencies{display:none;}
.not-grid{display:none;}
.not-hasCensored{display:none;}
.hasDoses,.__hasDoses{display:none;}
.hasIOV,.__hasIOV{display:none;}
.not-hasMean{display:none;}
.not-hasMode{display:none;}
.hasNominalTime,.__hasNominalTime{display:none;}
.hasRegressors,.__hasRegressors{display:none;}
.hasUnused,.__hasUnused{display:none;}
.individualsSelected,.__individualsSelected{display:none;}
.not-isIndivEstimMean{display:none;}
.legend,.__legend{display:none;}
.linkedZoom,.__linkedZoom{display:none;}
.mergeableSplits,.__mergeableSplits{display:none;}
.mergedSplits,.__mergedSplits{display:none;}
.piMedian,.__piMedian{display:none;}
.not-piPercentile{display:none;}
.splitted,.__splitted{display:none;}
.not-xAutoTicks{display:none;}
.xEqualDomains,.__xEqualDomains{display:none;}
.xLog,.__xLog{display:none;}
.not-yAutoTicks{display:none;}
.not-yEqualDomains{display:none;}
.yLog,.__yLog{display:none;}
.not-bottomAxisLine{display:none;}
.not-bottomAxisTickLabels{display:none;}
.bottomAxisTickRotation,.__bottomAxisTickRotation{display:none;}
.not-leftAxisLine{display:none;}
.not-leftAxisTickLabels{display:none;}
.rightAxisLine,.__rightAxisLine{display:none;}
.not-rightAxisTickLabels{display:none;}
.topAxisLine,.__topAxisLine{display:none;}
.not-topAxisTickLabels{display:none;}
.freehand-guides-layer,.__freehand-guides-layer{display:none;}
</style><g class="lixoftchart-scaler" transform="scale(1)"><g class="lixoftchart-translator" transform="translate(50,40)"><g class="x axis" transform="translate(0, 792)"><text class="x axis-label global" x="403" y="-10" style="text-anchor: middle;"><tspan class="axis-label-text">time</tspan><tspan class="axis-label-unit"/></text></g><g class="y axis"><text class="y axis-label global" transform="rotate(-90)" x="-396" y="-30" style="text-anchor: middle;"><tspan class="axis-label-text">Fraction of BLQ data between time 0 and t</tspan><tspan class="axis-label-unit"/></text></g><g class="page plot-page active" data-index="0"><g class="plot-container page-element" width="806" height="752" data-index="0" data-col="0" data-row="0" transform="translate(0,0)"><g class="subpage plot-page active" data-index="0"><g class="plot page-element" width="806" height="752" id="All" data-index="0" transform="translate(0,0)"><rect width="806" height="752" class="plot-background"/><svg class="plot-content zoomable-content" width="806" height="752"><g class="predictionInterval"><g class="low piPercentile"><polygon class="prediction-interval-mask autoscale low prediction-interval" points="36.63636363636364,168.98335467378024 40.31841023298309,168.98335467378024 44.000456829602555,168.98335467378024 47.68250342622201,168.98335467378024 51.364550022841485,168.98335467378024 55.04659661946094,168.98335467378024 58.7286432160804,236.38412291962663 62.41068981269986,236.38412291962663 66.09273640931933,236.38412291962663 69.77478300593879,236.38412291962663 73.45682960255823,236.38412291962663 77.1388761991777,281.3179684168574 80.82092279579714,281.3179684168574 84.5029693924166,281.3179684168574 88.18501598903607,281.3179684168574 91.86706258565555,281.3179684168574 95.549109182275,281.3179684168574 99.23115577889448,345.9103713191272 102.91320237551393,345.9103713191272 106.59524897213336,345.9103713191272 110.27729556875282,345.9103713191272 113.9593421653723,345.9103713191272 117.64138876199176,398.1459667096576 121.32343535861123,398.1459667096576 125.00548195523069,398.1459667096576 128.68752855185016,398.1459667096576 132.36957514846964,398.1459667096576 136.05162174508905,449.81988903147305 139.73366834170852,449.81988903147305 143.415714938328,449.81988903147305 147.09776153494747,449.81988903147305 150.7798081315669,449.81988903147305 154.46185472818638,449.81988903147305 158.14390132480585,486.72983354705553 161.8259479214253,486.72983354705553 165.50799451804474,486.72983354705553 169.1900411146642,486.72983354705553 172.87208771128368,486.72983354705553 176.5541343079031,514.4122919337424 180.23618090452257,514.4122919337424 183.91822750114204,514.4122919337424 187.6002740977615,514.4122919337424 191.28232069438099,514.4122919337424 194.96436729100043,514.4122919337424 198.6464138876199,543.4320671507039 202.32846048423937,543.4320671507039 206.01050708085882,543.4320671507039 209.6925536774783,543.4320671507039 213.37460027409773,543.4320671507039 217.0566468707172,566.6478873242733 220.73869346733665,566.6478873242733 224.42074006395612,566.6478873242733 228.10278666057562,566.6478873242733 231.78483325719506,566.6478873242733 235.46687985381448,585.6426492844663 239.14892645043395,585.6426492844663 242.83097304705345,585.6426492844663 246.5130196436729,585.6426492844663 250.19506624029236,585.6426492844663 253.8771128369118,585.6426492844663 257.55915943353125,601.4716175846272 261.24120603015075,601.4716175846272 264.9232526267702,601.4716175846272 268.60529922338964,601.4716175846272 272.2873458200091,601.4716175846272 275.9693924166286,609.6806855120059 279.651439013248,609.6806855120059 283.3334856098675,609.6806855120059 287.0155322064869,609.6806855120059 290.6975788031064,609.6806855120059 294.37962539972585,621.531370038748 298.06167199634535,621.531370038748 301.7437185929648,621.531370038748 305.42576518958424,621.531370038748 309.10781178620374,621.531370038748 312.7898583828232,621.531370038748 316.4719049794426,631.801963295258 320.1539515760621,631.801963295258 323.83599817268157,631.801963295258 327.518044769301,631.801963295258 331.20009136592046,631.801963295258 334.88213796253996,636.5761843793388 338.56418455915946,636.5761843793388 342.2462311557789,636.5761843793388 345.92827775239834,636.5761843793388 349.6103243490178,636.5761843793388 353.2923709456373,636.5761843793388 356.9744175422568,644.7534834679892 360.65646413887623,644.7534834679892 364.3385107354957,644.7534834679892 368.0205573321151,644.7534834679892 371.7026039287346,644.7534834679892 375.3846505253541,648.2777066442426 379.06669712197345,648.2777066442426 382.74874371859295,648.2777066442426 386.43079031521245,648.2777066442426 390.1128369118319,648.2777066442426 393.79488350845133,653.2046633873601 397.4769301050708,653.2046633873601 401.1589767016902,653.2046633873601 404.8410232983097,653.2046633873601 408.5230698949292,653.2046633873601 412.2051164915487,653.2046633873601 415.8871630881681,654.2688860438734 419.5692096847876,654.2688860438734 423.25125628140705,654.2688860438734 426.93330287802655,654.2688860438734 430.61534947464594,654.2688860438734 434.2973960712654,650.4174135726822 437.9794426678849,650.4174135726822 441.6614892645044,650.4174135726822 445.34353586112377,650.4174135726822 449.02558245774327,650.4174135726822 452.7076290543627,649.9797462464104 456.3896756509822,649.9797462464104 460.0717222476017,649.9797462464104 463.7537688442211,649.9797462464104 467.4358154408406,649.9797462464104 471.11786203746,649.9797462464104 474.79990863407954,648.1149028562093 478.48195523069904,648.1149028562093 482.1640018273183,648.1149028562093 485.8460484239378,648.1149028562093 489.5280950205573,648.1149028562093 493.21014161717676,645.0012804100696 496.89218821379626,645.0012804100696 500.57423481041565,645.0012804100696 504.25628140703515,645.0012804100696 507.93832800365465,645.0012804100696 511.6203746002741,645.0012804100696 515.3024211968935,639.4407170297873 518.984467793513,639.4407170297873 522.6665143901325,639.4407170297873 526.348560986752,639.4407170297873 530.0306075833714,639.4407170297873 533.7126541799909,633.0117206740296 537.3947007766103,633.0117206740296 541.0767473732298,633.0117206740296 544.7587939698492,633.0117206740296 548.4408405664686,633.0117206740296 552.1228871630882,623.314459145781 555.8049337597076,623.314459145781 559.4869803563271,623.314459145781 563.1690269529465,623.314459145781 566.851073549566,623.314459145781 570.5331201461855,623.314459145781 574.215166742805,615.5134443025119 577.8972133394244,615.5134443025119 581.5792599360439,615.5134443025119 585.2613065326633,615.5134443025119 588.9433531292827,615.5134443025119 592.6253997259022,605.9262660606457 596.3074463225216,605.9262660606457 599.9894929191411,605.9262660606457 603.6715395157606,605.9262660606457 607.3535861123801,605.9262660606457 611.0356327089995,599.3692658749103 614.717679305619,599.3692658749103 618.3997259022384,599.3692658749103 622.081772498858,599.3692658749103 625.7638190954774,599.3692658749103 629.4458656920968,599.3692658749103 633.1279122887163,592.1717848075364 636.8099588853358,592.1717848075364 640.4920054819552,592.1717848075364 644.1740520785746,592.1717848075364 647.8560986751941,592.1717848075364 651.5381452718136,591.2771760961468 655.2201918684331,591.2771760961468 658.9022384650525,591.2771760961468 662.584285061672,591.2771760961468 666.2663316582914,591.2771760961468 669.948378254911,591.2771760961468 673.6304248515304,584.5917857833917 677.3124714481498,584.5917857833917 680.9945180447693,584.5917857833917 684.6765646413887,584.5917857833917 688.3586112380083,584.5917857833917 692.0406578346277,581.8130601795887 695.7227044312472,581.8130601795887 699.4047510278666,581.8130601795887 703.086797624486,581.8130601795887 706.7688442211056,581.8130601795887 710.450890817725,580.1802896309975 714.1329374143445,580.1802896309975 717.8149840109638,580.1802896309975 721.4970306075834,580.1802896309975 725.1790772042027,580.1802896309975 728.8611238008223,580.1802896309975 732.5431703974416,579.1057671105879 736.2252169940612,579.1057671105879 739.9072635906806,579.1057671105879 743.5893101873,579.1057671105879 747.2713567839196,579.1057671105879 750.9534033805389,578.5726386293076 754.6354499771585,578.5726386293076 758.3174965737779,578.5726386293076 761.9995431703974,578.5726386293076 765.6815897670169,578.5726386293076 769.3636363636363,578.0422371479317 769.3636363636363,672.1619800180904 765.6815897670169,673.9706490695824 761.9995431703974,673.9706490695824 758.3174965737779,673.9706490695824 754.6354499771585,673.9706490695824 750.9534033805389,673.9706490695824 747.2713567839196,673.709416113755 743.5893101873,673.709416113755 739.9072635906806,673.709416113755 736.2252169940612,673.709416113755 732.5431703974416,673.709416113755 728.8611238008223,675.272846380951 725.1790772042027,675.272846380951 721.4970306075834,675.272846380951 717.8149840109638,675.272846380951 714.1329374143445,675.272846380951 710.450890817725,675.272846380951 706.7688442211056,678.7016645329927 703.086797624486,678.7016645329927 699.4047510278666,678.7016645329927 695.7227044312472,678.7016645329927 692.0406578346277,678.7016645329927 688.3586112380083,679.557512018964 684.6765646413887,679.557512018964 680.9945180447693,679.557512018964 677.3124714481498,679.557512018964 673.6304248515304,679.557512018964 669.948378254911,682.3495278277996 666.2663316582914,682.3495278277996 662.584285061672,682.3495278277996 658.9022384650525,682.3495278277996 655.2201918684331,682.3495278277996 651.5381452718136,682.3495278277996 647.8560986751941,684.9859574739476 644.1740520785746,684.9859574739476 640.4920054819552,684.9859574739476 636.8099588853358,684.9859574739476 633.1279122887163,684.9859574739476 629.4458656920968,690.8686328231821 625.7638190954774,690.8686328231821 622.081772498858,690.8686328231821 618.3997259022384,690.8686328231821 614.717679305619,690.8686328231821 611.0356327089995,690.8686328231821 607.3535861123801,696.5686785291975 603.6715395157606,696.5686785291975 599.9894929191411,696.5686785291975 596.3074463225216,696.5686785291975 592.6253997259022,696.5686785291975 588.9433531292827,703.3751600515614 585.2613065326633,703.3751600515614 581.5792599360439,703.3751600515614 577.8972133394244,703.3751600515614 574.215166742805,703.3751600515614 570.5331201461855,708.1895006405504 566.851073549566,708.1895006405504 563.1690269529465,708.1895006405504 559.4869803563271,708.1895006405504 555.8049337597076,708.1895006405504 552.1228871630882,708.1895006405504 548.4408405664686,708.1895006405504 544.7587939698492,708.1895006405504 541.0767473732298,708.1895006405504 537.3947007766103,708.1895006405504 533.7126541799909,708.1895006405504 530.0306075833714,713.5815621002181 526.348560986752,713.5815621002181 522.6665143901325,713.5815621002181 518.984467793513,713.5815621002181 515.3024211968935,713.5815621002181 511.6203746002741,716.6145966712812 507.93832800365465,716.6145966712812 504.25628140703515,716.6145966712812 500.57423481041565,716.6145966712812 496.89218821379626,716.6145966712812 493.21014161717676,716.6145966712812 489.5280950205573,716.9809051943564 485.8460484239378,716.9809051943564 482.1640018273183,716.9809051943564 478.48195523069904,716.9809051943564 474.79990863407954,716.9809051943564 471.11786203746,717.3805144922567 467.4358154408406,717.3805144922567 463.7537688442211,717.3805144922567 460.0717222476017,717.3805144922567 456.3896756509822,717.3805144922567 452.7076290543627,717.3805144922567 449.02558245774327,717.8181818185285 445.34353586112377,717.8181818185285 441.6614892645044,717.8181818185285 437.9794426678849,717.8181818185285 434.2973960712654,717.8181818185285 430.61534947464594,714.929577465135 426.93330287802655,714.929577465135 423.25125628140705,714.929577465135 419.5692096847876,714.929577465135 415.8871630881681,714.929577465135 412.2051164915487,715.2843183506395 408.5230698949292,715.2843183506395 404.8410232983097,715.2843183506395 401.1589767016902,715.2843183506395 397.4769301050708,715.2843183506395 393.79488350845133,715.2843183506395 390.1128369118319,711.9339877653197 386.43079031521245,711.9339877653197 382.74874371859295,711.9339877653197 379.06669712197345,711.9339877653197 375.3846505253541,711.9339877653197 371.7026039287346,710.171876177193 368.0205573321151,710.171876177193 364.3385107354957,710.171876177193 360.65646413887623,710.171876177193 356.9744175422568,710.171876177193 353.2923709456373,708.1895006405504 349.6103243490178,708.1895006405504 345.92827775239834,708.1895006405504 342.2462311557789,708.1895006405504 338.56418455915946,708.1895006405504 334.88213796253996,708.1895006405504 331.20009136592046,703.6961160908273 327.518044769301,703.6961160908273 323.83599817268157,703.6961160908273 320.1539515760621,703.6961160908273 316.4719049794426,703.6961160908273 312.7898583828232,698.5608194625723 309.10781178620374,698.5608194625723 305.42576518958424,698.5608194625723 301.7437185929648,698.5608194625723 298.06167199634535,698.5608194625723 294.37962539972585,698.5608194625723 290.6975788031064,692.6354771992013 287.0155322064869,692.6354771992013 283.3334856098675,692.6354771992013 279.651439013248,692.6354771992013 275.9693924166286,692.6354771992013 272.2873458200091,685.722577891935 268.60529922338964,685.722577891935 264.9232526267702,685.722577891935 261.24120603015075,685.722577891935 257.55915943353125,685.722577891935 253.8771128369118,677.5527878015293 250.19506624029236,677.5527878015293 246.5130196436729,677.5527878015293 242.83097304705345,677.5527878015293 239.14892645043395,677.5527878015293 235.46687985381448,677.5527878015293 231.78483325719506,667.7490396930426 228.10278666057562,667.7490396930426 224.42074006395612,667.7490396930426 220.73869346733665,667.7490396930426 217.0566468707172,667.7490396930426 213.37460027409773,655.7666808937811 209.6925536774783,655.7666808937811 206.01050708085882,655.7666808937811 202.32846048423937,655.7666808937811 198.6464138876199,655.7666808937811 194.96436729100043,640.7887323947041 191.28232069438099,640.7887323947041 187.6002740977615,640.7887323947041 183.91822750114204,640.7887323947041 180.23618090452257,640.7887323947041 176.5541343079031,640.7887323947041 172.87208771128368,621.531370038748 169.1900411146642,621.531370038748 165.50799451804474,621.531370038748 161.8259479214253,621.531370038748 158.14390132480585,621.531370038748 154.46185472818638,595.8548868974733 150.7798081315669,595.8548868974733 147.09776153494747,595.8548868974733 143.415714938328,595.8548868974733 139.73366834170852,595.8548868974733 136.05162174508905,595.8548868974733 132.36957514846964,573.3879641488579 128.68752855185016,573.3879641488579 125.00548195523069,573.3879641488579 121.32343535861123,573.3879641488579 117.64138876199176,573.3879641488579 113.9593421653723,539.6875800259347 110.27729556875282,539.6875800259347 106.59524897213336,539.6875800259347 102.91320237551393,539.6875800259347 99.23115577889448,539.6875800259347 95.549109182275,505.98719590301164 91.86706258565555,505.98719590301164 88.18501598903607,505.98719590301164 84.5029693924166,505.98719590301164 80.82092279579714,505.98719590301164 77.1388761991777,505.98719590301164 73.45682960255823,505.98719590301164 69.77478300593879,505.98719590301164 66.09273640931933,505.98719590301164 62.41068981269986,505.98719590301164 58.7286432160804,505.98719590301164 55.04659661946094,573.3879641488579 51.364550022841485,573.3879641488579 47.68250342622201,573.3879641488579 44.000456829602555,573.3879641488579 40.31841023298309,573.3879641488579 36.63636363636364,573.3879641488579"/></g></g><g class="distribution-functions"><path data-legend="Empirical proportion" class="empirical line autoscale blqFrequencies" d="M36.63636363636364,34.181818182087795L40.31841023298309,34.181818182087795L44.000456829602555,34.181818182087795L47.68250342622201,34.181818182087795L51.364550022841485,34.181818182087795L55.04659661946094,34.181818182087795L58.7286432160804,34.181818182087795L62.41068981269986,34.181818182087795L66.09273640931933,34.181818182087795L69.77478300593879,34.181818182087795L73.45682960255823,34.181818182087795L77.1388761991777,146.51643192516485L80.82092279579714,146.51643192516485L84.5029693924166,146.51643192516485L88.18501598903607,146.51643192516485L91.86706258565555,146.51643192516485L95.549109182275,146.51643192516485L99.23115577889448,202.68373879670332L102.91320237551393,202.68373879670332L106.59524897213336,202.68373879670332L110.27729556875282,202.68373879670332L113.9593421653723,202.68373879670332L117.64138876199176,276.8245838671343L121.32343535861123,276.8245838671343L125.00548195523069,276.8245838671343L128.68752855185016,276.8245838671343L132.36957514846964,276.8245838671343L136.05162174508905,348.71873666270363L139.73366834170852,348.71873666270363L143.415714938328,348.71873666270363L147.09776153494747,348.71873666270363L150.7798081315669,348.71873666270363L154.46185472818638,348.71873666270363L158.14390132480585,390.4430217672752L161.8259479214253,390.4430217672752L165.50799451804474,390.4430217672752L169.1900411146642,390.4430217672752L172.87208771128368,390.4430217672752L176.5541343079031,438.58642765716536L180.23618090452257,438.58642765716536L183.91822750114204,438.58642765716536L187.6002740977615,438.58642765716536L191.28232069438099,438.58642765716536L194.96436729100043,438.58642765716536L198.6464138876199,468.54232465531925L202.32846048423937,468.54232465531925L206.01050708085882,468.54232465531925L209.6925536774783,468.54232465531925L213.37460027409773,468.54232465531925L217.0566468707172,499.247119078427L220.73869346733665,499.247119078427L224.42074006395612,499.247119078427L228.10278666057562,499.247119078427L231.78483325719506,499.247119078427L235.46687985381448,524.3692236064242L239.14892645043395,524.3692236064242L242.83097304705345,524.3692236064242L246.5130196436729,524.3692236064242L250.19506624029236,524.3692236064242L253.8771128369118,524.3692236064242L257.55915943353125,545.3043107130886L261.24120603015075,545.3043107130886L264.9232526267702,545.3043107130886L268.60529922338964,545.3043107130886L272.2873458200091,545.3043107130886L275.9693924166286,563.0186151879584L279.651439013248,563.0186151879584L283.3334856098675,563.0186151879584L287.0155322064869,563.0186151879584L290.6975788031064,563.0186151879584L294.37962539972585,578.2023047378469L298.06167199634535,578.2023047378469L301.7437185929648,578.2023047378469L305.42576518958424,578.2023047378469L309.10781178620374,578.2023047378469L312.7898583828232,578.2023047378469L316.4719049794426,591.3615023477503L320.1539515760621,591.3615023477503L323.83599817268157,591.3615023477503L327.518044769301,591.3615023477503L331.20009136592046,591.3615023477503L334.88213796253996,602.8758002564157L338.56418455915946,602.8758002564157L342.2462311557789,602.8758002564157L345.92827775239834,602.8758002564157L349.6103243490178,602.8758002564157L353.2923709456373,602.8758002564157L356.9744175422568,613.0354748817086L360.65646413887623,613.0354748817086L364.3385107354957,613.0354748817086L368.0205573321151,613.0354748817086L371.7026039287346,613.0354748817086L375.3846505253541,622.0662967708579L379.06669712197345,622.0662967708579L382.74874371859295,622.0662967708579L386.43079031521245,622.0662967708579L390.1128369118319,622.0662967708579L393.79488350845133,630.1465058295705L397.4769301050708,630.1465058295705L401.1589767016902,630.1465058295705L404.8410232983097,630.1465058295705L408.5230698949292,630.1465058295705L412.2051164915487,630.1465058295705L415.8871630881681,637.4186939824118L419.5692096847876,637.4186939824118L423.25125628140705,637.4186939824118L426.93330287802655,637.4186939824118L430.61534947464594,637.4186939824118L434.2973960712654,640.7887323947041L437.9794426678849,640.7887323947041L441.6614892645044,640.7887323947041L445.34353586112377,640.7887323947041L449.02558245774327,640.7887323947041L452.7076290543627,640.7887323947041L456.3896756509822,640.7887323947041L460.0717222476017,640.7887323947041L463.7537688442211,640.7887323947041L467.4358154408406,640.7887323947041L471.11786203746,640.7887323947041L474.79990863407954,643.7192005793062L478.48195523069904,643.7192005793062L482.1640018273183,643.7192005793062L485.8460484239378,643.7192005793062L489.5280950205573,643.7192005793062L493.21014161717676,637.9803670511272L496.89218821379626,637.9803670511272L500.57423481041565,637.9803670511272L504.25628140703515,637.9803670511272L507.93832800365465,637.9803670511272L511.6203746002741,637.9803670511272L515.3024211968935,630.0046094753687L518.984467793513,630.0046094753687L522.6665143901325,630.0046094753687L526.348560986752,630.0046094753687L530.0306075833714,630.0046094753687L533.7126541799909,620.0500344729053L537.3947007766103,620.0500344729053L541.0767473732298,620.0500344729053L544.7587939698492,620.0500344729053L548.4408405664686,620.0500344729053L552.1228871630882,613.3291601463964L555.8049337597076,613.3291601463964L559.4869803563271,613.3291601463964L563.1690269529465,613.3291601463964L566.851073549566,613.3291601463964L570.5331201461855,613.3291601463964L574.215166742805,604.6811779772866L577.8972133394244,604.6811779772866L581.5792599360439,604.6811779772866L585.2613065326633,604.6811779772866L588.9433531292827,604.6811779772866L592.6253997259022,591.9812795270224L596.3074463225216,591.9812795270224L599.9894929191411,591.9812795270224L603.6715395157606,591.9812795270224L607.3535861123801,591.9812795270224L611.0356327089995,583.5545604764436L614.717679305619,583.5545604764436L618.3997259022384,583.5545604764436L622.081772498858,583.5545604764436L625.7638190954774,583.5545604764436L629.4458656920968,583.5545604764436L633.1279122887163,578.9126172837633L636.8099588853358,578.9126172837633L640.4920054819552,578.9126172837633L644.1740520785746,578.9126172837633L647.8560986751941,578.9126172837633L651.5381452718136,571.7616721536498L655.2201918684331,571.7616721536498L658.9022384650525,571.7616721536498L662.584285061672,571.7616721536498L666.2663316582914,571.7616721536498L669.948378254911,571.7616721536498L673.6304248515304,570.720387569207L677.3124714481498,570.720387569207L680.9945180447693,570.720387569207L684.6765646413887,570.720387569207L688.3586112380083,570.720387569207L692.0406578346277,564.9628681181271L695.7227044312472,564.9628681181271L699.4047510278666,564.9628681181271L703.086797624486,564.9628681181271L706.7688442211056,564.9628681181271L710.450890817725,562.4157460623247L714.1329374143445,562.4157460623247L717.8149840109638,562.4157460623247L721.4970306075834,562.4157460623247L725.1790772042027,562.4157460623247L728.8611238008223,562.4157460623247L732.5431703974416,559.3533568791572L736.2252169940612,559.3533568791572L739.9072635906806,559.3533568791572L743.5893101873,559.3533568791572L747.2713567839196,559.3533568791572L750.9534033805389,557.8339407075088L754.6354499771585,557.8339407075088L758.3174965737779,557.8339407075088L761.9995431703974,557.8339407075088L765.6815897670169,557.8339407075088L769.3636363636363,556.3222964855873" data-legend-class="blqFrequencies" fill="none"/></g><g class="userGuides"/></svg><g class="axes"><g class="bottom axis bottomAxisLine" transform="translate(0,752)" fill="none" text-anchor="middle"><path class="domain" stroke="#000" d="M0.5,6V0.5H806.5V6" fill="none"/><g class="tick" opacity="1" transform="translate(76.74324324324324,0)"><line stroke="#000" y2="3" fill="none"/><text fill="#000" y="6" dy="0.71em" class="bottomAxisTickLabels transformed-label"><tspan class="label-block">2</tspan></text></g><g class="tick" opacity="1" transform="translate(155.95700245700243,0)"><line stroke="#000" y2="3" fill="none"/><text fill="#000" y="6" dy="0.71em" class="bottomAxisTickLabels transformed-label"><tspan class="label-block">4</tspan></text></g><g class="tick" opacity="1" transform="translate(235.17076167076166,0)"><line stroke="#000" y2="3" fill="none"/><text fill="#000" y="6" dy="0.71em" class="bottomAxisTickLabels transformed-label"><tspan class="label-block">6</tspan></text></g><g class="tick" opacity="1" transform="translate(314.38452088452084,0)"><line stroke="#000" y2="3" fill="none"/><text fill="#000" y="6" dy="0.71em" class="bottomAxisTickLabels transformed-label"><tspan class="label-block">8</tspan></text></g><g class="tick" opacity="1" transform="translate(393.5982800982801,0)"><line stroke="#000" y2="3" fill="none"/><text fill="#000" y="6" dy="0.71em" class="bottomAxisTickLabels transformed-label"><tspan class="label-block">10</tspan></text></g><g class="tick" opacity="1" transform="translate(472.8120393120393,0)"><line stroke="#000" y2="3" fill="none"/><text fill="#000" y="6" dy="0.71em" class="bottomAxisTickLabels transformed-label"><tspan class="label-block">12</tspan></text></g><g class="tick" opacity="1" transform="translate(552.0257985257986,0)"><line stroke="#000" y2="3" fill="none"/><text fill="#000" y="6" dy="0.71em" class="bottomAxisTickLabels transformed-label"><tspan class="label-block">14</tspan></text></g><g class="tick" opacity="1" transform="translate(631.2395577395577,0)"><line stroke="#000" y2="3" fill="none"/><text fill="#000" y="6" dy="0.71em" class="bottomAxisTickLabels transformed-label"><tspan class="label-block">16</tspan></text></g><g class="tick" opacity="1" transform="translate(710.453316953317,0)"><line stroke="#000" y2="3" fill="none"/><text fill="#000" y="6" dy="0.71em" class="bottomAxisTickLabels transformed-label"><tspan class="label-block">18</tspan></text></g><g class="tick" opacity="1" transform="translate(789.6670761670762,0)"><line stroke="#000" y2="3" fill="none"/><text fill="#000" y="6" dy="0.71em" class="bottomAxisTickLabels transformed-label"><tspan class="label-block">20</tspan></text></g></g><g class="left axis leftAxisLine" fill="none" text-anchor="end"><path class="domain" stroke="#000" d="M-6,752.5H0.5V0.5H-6" fill="none"/><g class="tick" opacity="1" transform="translate(0,695.2093469913812)"><line stroke="#000" x2="-3" fill="none"/><text fill="#000" x="-6" dy="0.32em" class="leftAxisTickLabels transformed-label"><tspan class="label-block">0.1</tspan></text></g><g class="tick" opacity="1" transform="translate(0,614.3284250963657)"><line stroke="#000" x2="-3" fill="none"/><text fill="#000" x="-6" dy="0.32em" class="leftAxisTickLabels transformed-label"><tspan class="label-block">0.2</tspan></text></g><g class="tick" opacity="1" transform="translate(0,533.4475032013502)"><line stroke="#000" x2="-3" fill="none"/><text fill="#000" x="-6" dy="0.32em" class="leftAxisTickLabels transformed-label"><tspan class="label-block">0.3</tspan></text></g><g class="tick" opacity="1" transform="translate(0,452.56658130633457)"><line stroke="#000" x2="-3" fill="none"/><text fill="#000" x="-6" dy="0.32em" class="leftAxisTickLabels transformed-label"><tspan class="label-block">0.4</tspan></text></g><g class="tick" opacity="1" transform="translate(0,371.6856594113191)"><line stroke="#000" x2="-3" fill="none"/><text fill="#000" x="-6" dy="0.32em" class="leftAxisTickLabels transformed-label"><tspan class="label-block">0.5</tspan></text></g><g class="tick" opacity="1" transform="translate(0,290.8047375163036)"><line stroke="#000" x2="-3" fill="none"/><text fill="#000" x="-6" dy="0.32em" class="leftAxisTickLabels transformed-label"><tspan class="label-block">0.6</tspan></text></g><g class="tick" opacity="1" transform="translate(0,209.9238156212881)"><line stroke="#000" x2="-3" fill="none"/><text fill="#000" x="-6" dy="0.32em" class="leftAxisTickLabels transformed-label"><tspan class="label-block">0.7</tspan></text></g><g class="tick" opacity="1" transform="translate(0,129.0428937262725)"><line stroke="#000" x2="-3" fill="none"/><text fill="#000" x="-6" dy="0.32em" class="leftAxisTickLabels transformed-label"><tspan class="label-block">0.8</tspan></text></g><g class="tick" opacity="1" transform="translate(0,48.161971831257006)"><line stroke="#000" x2="-3" fill="none"/><text fill="#000" x="-6" dy="0.32em" class="leftAxisTickLabels transformed-label"><tspan class="label-block">0.9</tspan></text></g></g></g><g class="grid"><g class="vertical" transform="translate(0,752)" fill="none" font-size="10" font-family="sans-serif" text-anchor="middle"><g class="tick" opacity="1" transform="translate(76.74324324324324,0)"><line stroke="#000" y2="-752" fill="none"/></g><g class="tick" opacity="1" transform="translate(155.95700245700243,0)"><line stroke="#000" y2="-752" fill="none"/></g><g class="tick" opacity="1" transform="translate(235.17076167076166,0)"><line stroke="#000" y2="-752" fill="none"/></g><g class="tick" opacity="1" transform="translate(314.38452088452084,0)"><line stroke="#000" y2="-752" fill="none"/></g><g class="tick" opacity="1" transform="translate(393.5982800982801,0)"><line stroke="#000" y2="-752" fill="none"/></g><g class="tick" opacity="1" transform="translate(472.8120393120393,0)"><line stroke="#000" y2="-752" fill="none"/></g><g class="tick" opacity="1" transform="translate(552.0257985257986,0)"><line stroke="#000" y2="-752" fill="none"/></g><g class="tick" opacity="1" transform="translate(631.2395577395577,0)"><line stroke="#000" y2="-752" fill="none"/></g><g class="tick" opacity="1" transform="translate(710.453316953317,0)"><line stroke="#000" y2="-752" fill="none"/></g><g class="tick" opacity="1" transform="translate(789.6670761670762,0)"><line stroke="#000" y2="-752" fill="none"/></g></g><g class="horizontal" fill="none" font-size="10" font-family="sans-serif" text-anchor="end"><g class="tick" opacity="1" transform="translate(0,695.2093469913812)"><line stroke="#000" x2="806" fill="none"/></g><g class="tick" opacity="1" transform="translate(0,614.3284250963657)"><line stroke="#000" x2="806" fill="none"/></g><g class="tick" opacity="1" transform="translate(0,533.4475032013502)"><line stroke="#000" x2="806" fill="none"/></g><g class="tick" opacity="1" transform="translate(0,452.56658130633457)"><line stroke="#000" x2="806" fill="none"/></g><g class="tick" opacity="1" transform="translate(0,371.6856594113191)"><line stroke="#000" x2="806" fill="none"/></g><g class="tick" opacity="1" transform="translate(0,290.8047375163036)"><line stroke="#000" x2="806" fill="none"/></g><g class="tick" opacity="1" transform="translate(0,209.9238156212881)"><line stroke="#000" x2="806" fill="none"/></g><g class="tick" opacity="1" transform="translate(0,129.0428937262725)"><line stroke="#000" x2="806" fill="none"/></g><g class="tick" opacity="1" transform="translate(0,48.161971831257006)"><line stroke="#000" x2="806" fill="none"/></g></g></g><defs><g id="All-pi-low"><polygon class="prediction-interval autoscale" points="36.63636363636364,168.98335467378024 40.31841023298309,168.98335467378024 44.000456829602555,168.98335467378024 47.68250342622201,168.98335467378024 51.364550022841485,168.98335467378024 55.04659661946094,168.98335467378024 58.7286432160804,236.38412291962663 62.41068981269986,236.38412291962663 66.09273640931933,236.38412291962663 69.77478300593879,236.38412291962663 73.45682960255823,236.38412291962663 77.1388761991777,281.3179684168574 80.82092279579714,281.3179684168574 84.5029693924166,281.3179684168574 88.18501598903607,281.3179684168574 91.86706258565555,281.3179684168574 95.549109182275,281.3179684168574 99.23115577889448,345.9103713191272 102.91320237551393,345.9103713191272 106.59524897213336,345.9103713191272 110.27729556875282,345.9103713191272 113.9593421653723,345.9103713191272 117.64138876199176,398.1459667096576 121.32343535861123,398.1459667096576 125.00548195523069,398.1459667096576 128.68752855185016,398.1459667096576 132.36957514846964,398.1459667096576 136.05162174508905,449.81988903147305 139.73366834170852,449.81988903147305 143.415714938328,449.81988903147305 147.09776153494747,449.81988903147305 150.7798081315669,449.81988903147305 154.46185472818638,449.81988903147305 158.14390132480585,486.72983354705553 161.8259479214253,486.72983354705553 165.50799451804474,486.72983354705553 169.1900411146642,486.72983354705553 172.87208771128368,486.72983354705553 176.5541343079031,514.4122919337424 180.23618090452257,514.4122919337424 183.91822750114204,514.4122919337424 187.6002740977615,514.4122919337424 191.28232069438099,514.4122919337424 194.96436729100043,514.4122919337424 198.6464138876199,543.4320671507039 202.32846048423937,543.4320671507039 206.01050708085882,543.4320671507039 209.6925536774783,543.4320671507039 213.37460027409773,543.4320671507039 217.0566468707172,566.6478873242733 220.73869346733665,566.6478873242733 224.42074006395612,566.6478873242733 228.10278666057562,566.6478873242733 231.78483325719506,566.6478873242733 235.46687985381448,585.6426492844663 239.14892645043395,585.6426492844663 242.83097304705345,585.6426492844663 246.5130196436729,585.6426492844663 250.19506624029236,585.6426492844663 253.8771128369118,585.6426492844663 257.55915943353125,601.4716175846272 261.24120603015075,601.4716175846272 264.9232526267702,601.4716175846272 268.60529922338964,601.4716175846272 272.2873458200091,601.4716175846272 275.9693924166286,609.6806855120059 279.651439013248,609.6806855120059 283.3334856098675,609.6806855120059 287.0155322064869,609.6806855120059 290.6975788031064,609.6806855120059 294.37962539972585,621.531370038748 298.06167199634535,621.531370038748 301.7437185929648,621.531370038748 305.42576518958424,621.531370038748 309.10781178620374,621.531370038748 312.7898583828232,621.531370038748 316.4719049794426,631.801963295258 320.1539515760621,631.801963295258 323.83599817268157,631.801963295258 327.518044769301,631.801963295258 331.20009136592046,631.801963295258 334.88213796253996,636.5761843793388 338.56418455915946,636.5761843793388 342.2462311557789,636.5761843793388 345.92827775239834,636.5761843793388 349.6103243490178,636.5761843793388 353.2923709456373,636.5761843793388 356.9744175422568,644.7534834679892 360.65646413887623,644.7534834679892 364.3385107354957,644.7534834679892 368.0205573321151,644.7534834679892 371.7026039287346,644.7534834679892 375.3846505253541,648.2777066442426 379.06669712197345,648.2777066442426 382.74874371859295,648.2777066442426 386.43079031521245,648.2777066442426 390.1128369118319,648.2777066442426 393.79488350845133,653.2046633873601 397.4769301050708,653.2046633873601 401.1589767016902,653.2046633873601 404.8410232983097,653.2046633873601 408.5230698949292,653.2046633873601 412.2051164915487,653.2046633873601 415.8871630881681,654.2688860438734 419.5692096847876,654.2688860438734 423.25125628140705,654.2688860438734 426.93330287802655,654.2688860438734 430.61534947464594,654.2688860438734 434.2973960712654,650.4174135726822 437.9794426678849,650.4174135726822 441.6614892645044,650.4174135726822 445.34353586112377,650.4174135726822 449.02558245774327,650.4174135726822 452.7076290543627,649.9797462464104 456.3896756509822,649.9797462464104 460.0717222476017,649.9797462464104 463.7537688442211,649.9797462464104 467.4358154408406,649.9797462464104 471.11786203746,649.9797462464104 474.79990863407954,648.1149028562093 478.48195523069904,648.1149028562093 482.1640018273183,648.1149028562093 485.8460484239378,648.1149028562093 489.5280950205573,648.1149028562093 493.21014161717676,645.0012804100696 496.89218821379626,645.0012804100696 500.57423481041565,645.0012804100696 504.25628140703515,645.0012804100696 507.93832800365465,645.0012804100696 511.6203746002741,645.0012804100696 515.3024211968935,639.4407170297873 518.984467793513,639.4407170297873 522.6665143901325,639.4407170297873 526.348560986752,639.4407170297873 530.0306075833714,639.4407170297873 533.7126541799909,633.0117206740296 537.3947007766103,633.0117206740296 541.0767473732298,633.0117206740296 544.7587939698492,633.0117206740296 548.4408405664686,633.0117206740296 552.1228871630882,623.314459145781 555.8049337597076,623.314459145781 559.4869803563271,623.314459145781 563.1690269529465,623.314459145781 566.851073549566,623.314459145781 570.5331201461855,623.314459145781 574.215166742805,615.5134443025119 577.8972133394244,615.5134443025119 581.5792599360439,615.5134443025119 585.2613065326633,615.5134443025119 588.9433531292827,615.5134443025119 592.6253997259022,605.9262660606457 596.3074463225216,605.9262660606457 599.9894929191411,605.9262660606457 603.6715395157606,605.9262660606457 607.3535861123801,605.9262660606457 611.0356327089995,599.3692658749103 614.717679305619,599.3692658749103 618.3997259022384,599.3692658749103 622.081772498858,599.3692658749103 625.7638190954774,599.3692658749103 629.4458656920968,599.3692658749103 633.1279122887163,592.1717848075364 636.8099588853358,592.1717848075364 640.4920054819552,592.1717848075364 644.1740520785746,592.1717848075364 647.8560986751941,592.1717848075364 651.5381452718136,591.2771760961468 655.2201918684331,591.2771760961468 658.9022384650525,591.2771760961468 662.584285061672,591.2771760961468 666.2663316582914,591.2771760961468 669.948378254911,591.2771760961468 673.6304248515304,584.5917857833917 677.3124714481498,584.5917857833917 680.9945180447693,584.5917857833917 684.6765646413887,584.5917857833917 688.3586112380083,584.5917857833917 692.0406578346277,581.8130601795887 695.7227044312472,581.8130601795887 699.4047510278666,581.8130601795887 703.086797624486,581.8130601795887 706.7688442211056,581.8130601795887 710.450890817725,580.1802896309975 714.1329374143445,580.1802896309975 717.8149840109638,580.1802896309975 721.4970306075834,580.1802896309975 725.1790772042027,580.1802896309975 728.8611238008223,580.1802896309975 732.5431703974416,579.1057671105879 736.2252169940612,579.1057671105879 739.9072635906806,579.1057671105879 743.5893101873,579.1057671105879 747.2713567839196,579.1057671105879 750.9534033805389,578.5726386293076 754.6354499771585,578.5726386293076 758.3174965737779,578.5726386293076 761.9995431703974,578.5726386293076 765.6815897670169,578.5726386293076 769.3636363636363,578.0422371479317 769.3636363636363,672.1619800180904 765.6815897670169,673.9706490695824 761.9995431703974,673.9706490695824 758.3174965737779,673.9706490695824 754.6354499771585,673.9706490695824 750.9534033805389,673.9706490695824 747.2713567839196,673.709416113755 743.5893101873,673.709416113755 739.9072635906806,673.709416113755 736.2252169940612,673.709416113755 732.5431703974416,673.709416113755 728.8611238008223,675.272846380951 725.1790772042027,675.272846380951 721.4970306075834,675.272846380951 717.8149840109638,675.272846380951 714.1329374143445,675.272846380951 710.450890817725,675.272846380951 706.7688442211056,678.7016645329927 703.086797624486,678.7016645329927 699.4047510278666,678.7016645329927 695.7227044312472,678.7016645329927 692.0406578346277,678.7016645329927 688.3586112380083,679.557512018964 684.6765646413887,679.557512018964 680.9945180447693,679.557512018964 677.3124714481498,679.557512018964 673.6304248515304,679.557512018964 669.948378254911,682.3495278277996 666.2663316582914,682.3495278277996 662.584285061672,682.3495278277996 658.9022384650525,682.3495278277996 655.2201918684331,682.3495278277996 651.5381452718136,682.3495278277996 647.8560986751941,684.9859574739476 644.1740520785746,684.9859574739476 640.4920054819552,684.9859574739476 636.8099588853358,684.9859574739476 633.1279122887163,684.9859574739476 629.4458656920968,690.8686328231821 625.7638190954774,690.8686328231821 622.081772498858,690.8686328231821 618.3997259022384,690.8686328231821 614.717679305619,690.8686328231821 611.0356327089995,690.8686328231821 607.3535861123801,696.5686785291975 603.6715395157606,696.5686785291975 599.9894929191411,696.5686785291975 596.3074463225216,696.5686785291975 592.6253997259022,696.5686785291975 588.9433531292827,703.3751600515614 585.2613065326633,703.3751600515614 581.5792599360439,703.3751600515614 577.8972133394244,703.3751600515614 574.215166742805,703.3751600515614 570.5331201461855,708.1895006405504 566.851073549566,708.1895006405504 563.1690269529465,708.1895006405504 559.4869803563271,708.1895006405504 555.8049337597076,708.1895006405504 552.1228871630882,708.1895006405504 548.4408405664686,708.1895006405504 544.7587939698492,708.1895006405504 541.0767473732298,708.1895006405504 537.3947007766103,708.1895006405504 533.7126541799909,708.1895006405504 530.0306075833714,713.5815621002181 526.348560986752,713.5815621002181 522.6665143901325,713.5815621002181 518.984467793513,713.5815621002181 515.3024211968935,713.5815621002181 511.6203746002741,716.6145966712812 507.93832800365465,716.6145966712812 504.25628140703515,716.6145966712812 500.57423481041565,716.6145966712812 496.89218821379626,716.6145966712812 493.21014161717676,716.6145966712812 489.5280950205573,716.9809051943564 485.8460484239378,716.9809051943564 482.1640018273183,716.9809051943564 478.48195523069904,716.9809051943564 474.79990863407954,716.9809051943564 471.11786203746,717.3805144922567 467.4358154408406,717.3805144922567 463.7537688442211,717.3805144922567 460.0717222476017,717.3805144922567 456.3896756509822,717.3805144922567 452.7076290543627,717.3805144922567 449.02558245774327,717.8181818185285 445.34353586112377,717.8181818185285 441.6614892645044,717.8181818185285 437.9794426678849,717.8181818185285 434.2973960712654,717.8181818185285 430.61534947464594,714.929577465135 426.93330287802655,714.929577465135 423.25125628140705,714.929577465135 419.5692096847876,714.929577465135 415.8871630881681,714.929577465135 412.2051164915487,715.2843183506395 408.5230698949292,715.2843183506395 404.8410232983097,715.2843183506395 401.1589767016902,715.2843183506395 397.4769301050708,715.2843183506395 393.79488350845133,715.2843183506395 390.1128369118319,711.9339877653197 386.43079031521245,711.9339877653197 382.74874371859295,711.9339877653197 379.06669712197345,711.9339877653197 375.3846505253541,711.9339877653197 371.7026039287346,710.171876177193 368.0205573321151,710.171876177193 364.3385107354957,710.171876177193 360.65646413887623,710.171876177193 356.9744175422568,710.171876177193 353.2923709456373,708.1895006405504 349.6103243490178,708.1895006405504 345.92827775239834,708.1895006405504 342.2462311557789,708.1895006405504 338.56418455915946,708.1895006405504 334.88213796253996,708.1895006405504 331.20009136592046,703.6961160908273 327.518044769301,703.6961160908273 323.83599817268157,703.6961160908273 320.1539515760621,703.6961160908273 316.4719049794426,703.6961160908273 312.7898583828232,698.5608194625723 309.10781178620374,698.5608194625723 305.42576518958424,698.5608194625723 301.7437185929648,698.5608194625723 298.06167199634535,698.5608194625723 294.37962539972585,698.5608194625723 290.6975788031064,692.6354771992013 287.0155322064869,692.6354771992013 283.3334856098675,692.6354771992013 279.651439013248,692.6354771992013 275.9693924166286,692.6354771992013 272.2873458200091,685.722577891935 268.60529922338964,685.722577891935 264.9232526267702,685.722577891935 261.24120603015075,685.722577891935 257.55915943353125,685.722577891935 253.8771128369118,677.5527878015293 250.19506624029236,677.5527878015293 246.5130196436729,677.5527878015293 242.83097304705345,677.5527878015293 239.14892645043395,677.5527878015293 235.46687985381448,677.5527878015293 231.78483325719506,667.7490396930426 228.10278666057562,667.7490396930426 224.42074006395612,667.7490396930426 220.73869346733665,667.7490396930426 217.0566468707172,667.7490396930426 213.37460027409773,655.7666808937811 209.6925536774783,655.7666808937811 206.01050708085882,655.7666808937811 202.32846048423937,655.7666808937811 198.6464138876199,655.7666808937811 194.96436729100043,640.7887323947041 191.28232069438099,640.7887323947041 187.6002740977615,640.7887323947041 183.91822750114204,640.7887323947041 180.23618090452257,640.7887323947041 176.5541343079031,640.7887323947041 172.87208771128368,621.531370038748 169.1900411146642,621.531370038748 165.50799451804474,621.531370038748 161.8259479214253,621.531370038748 158.14390132480585,621.531370038748 154.46185472818638,595.8548868974733 150.7798081315669,595.8548868974733 147.09776153494747,595.8548868974733 143.415714938328,595.8548868974733 139.73366834170852,595.8548868974733 136.05162174508905,595.8548868974733 132.36957514846964,573.3879641488579 128.68752855185016,573.3879641488579 125.00548195523069,573.3879641488579 121.32343535861123,573.3879641488579 117.64138876199176,573.3879641488579 113.9593421653723,539.6875800259347 110.27729556875282,539.6875800259347 106.59524897213336,539.6875800259347 102.91320237551393,539.6875800259347 99.23115577889448,539.6875800259347 95.549109182275,505.98719590301164 91.86706258565555,505.98719590301164 88.18501598903607,505.98719590301164 84.5029693924166,505.98719590301164 80.82092279579714,505.98719590301164 77.1388761991777,505.98719590301164 73.45682960255823,505.98719590301164 69.77478300593879,505.98719590301164 66.09273640931933,505.98719590301164 62.41068981269986,505.98719590301164 58.7286432160804,505.98719590301164 55.04659661946094,573.3879641488579 51.364550022841485,573.3879641488579 47.68250342622201,573.3879641488579 44.000456829602555,573.3879641488579 40.31841023298309,573.3879641488579 36.63636363636364,573.3879641488579"/></g><g id="All-pi-low-maskdata"/><mask id="All-pi-low-mask" class="prediction-interval-mask"><rect x="0" y="0" width="100%" height="100%" fill="white"/><use xmlns:xlink="http://www.w3.org/1999/xlink" xlink:href="#All-pi-low-maskdata" fill="black"/></mask><clipPath id="All--freehand-guides-clip" class="freehand-guides-clip"><rect x="0" y="0" width="806" height="752"/></clipPath></defs></g></g><text x="403" y="-1em" class="title transformed-label" text-anchor="middle"/></g></g></g></g></svg>
